<svg width="96" height="96" viewBox="0 0 96 96" fill="none" xmlns="http://www.w3.org/2000/svg">
<path d="M86 84.8V39.8768C86 38.4536 86 37.742 85.8178 37.0857C85.6565 36.5044 85.3913 35.9571 85.035 35.4702C84.6328 34.9206 84.0742 34.4797 82.9572 33.5978L52.9572 9.91354C51.1862 8.51542 50.3007 7.81635 49.3207 7.54796C48.4562 7.31118 47.5438 7.31118 46.6793 7.54796C45.6993 7.81635 44.8138 8.51541 43.0429 9.91354L13.0428 33.5978C11.9258 34.4797 11.3672 34.9206 10.965 35.4702C10.6087 35.9571 10.3435 36.5044 10.1821 37.0857C10 37.742 10 38.4536 10 39.8768V84.8C10 85.9201 10 86.4802 10.218 86.908C10.4097 87.2843 10.7157 87.5903 11.092 87.782C11.5198 88 12.0799 88 13.2 88H30.8C31.9201 88 32.4802 88 32.908 87.782C33.2843 87.5903 33.5903 87.2843 33.782 86.908C34 86.4802 34 85.9201 34 84.8V63.6C34 60.2397 34 58.5595 34.654 57.2761C35.2292 56.1471 36.1471 55.2292 37.2761 54.654C38.5595 54 40.2397 54 43.6 54H52.4C55.7603 54 57.4405 54 58.7239 54.654C59.8529 55.2292 60.7708 56.1471 61.346 57.2761C62 58.5595 62 60.2397 62 63.6V84.8C62 85.9201 62 86.4802 62.218 86.908C62.4097 87.2843 62.7157 87.5903 63.092 87.782C63.5198 88 64.0799 88 65.2 88H82.8C83.9201 88 84.4802 88 84.908 87.782C85.2843 87.5903 85.5903 87.2843 85.782 86.908C86 86.4802 86 85.9201 86 84.8Z" fill="black"/>
</svg>
