<svg width="32" height="32" viewBox="0 0 32 32" fill="none" xmlns="http://www.w3.org/2000/svg">
<path fill-rule="evenodd" clip-rule="evenodd" d="M8.08885 8.04693C7.83729 8.15781 7.67804 8.41924 7.46873 9.06499C6.85623 10.9547 5.73629 12.278 4.02635 13.1323C3.18929 13.5506 2.42097 13.7328 1.05116 13.8381C0.489723 13.8812 0.215348 14.0221 0.0850976 14.3338C-0.0325899 14.6154 -0.0285899 14.8281 0.0994726 15.098C0.293223 15.5062 0.474285 15.5666 1.40135 15.5316C3.66966 15.4461 5.60816 14.5889 7.13804 12.995C7.45535 12.6644 7.86935 12.15 8.05816 11.8519C8.24691 11.5537 8.42016 11.3154 8.44316 11.3221C8.46616 11.3289 8.65504 11.5939 8.86279 11.9109C10.0317 13.6944 11.95 14.9594 14.1712 15.4111C14.9541 15.5703 17.1216 15.5665 17.8668 15.4046C19.051 15.1474 20.2244 14.6452 21.0889 14.0257C21.9716 13.3931 22.847 12.4481 23.3359 11.6001C23.43 11.4367 23.5254 11.305 23.5479 11.3072C23.5704 11.3095 23.7435 11.5556 23.9326 11.8541C24.1534 12.2027 24.5223 12.6433 24.9639 13.0857C25.9464 14.07 26.9015 14.6726 28.1201 15.0769C29.0546 15.387 29.6604 15.4988 30.5889 15.5327C31.3182 15.5592 31.421 15.5497 31.5939 15.4401C32.121 15.1056 32.1037 14.2419 31.5643 13.9629C31.4599 13.9089 31.0435 13.8424 30.5705 13.8042C29.6624 13.7309 29.0401 13.5911 28.3586 13.3074C26.471 12.5216 25.1635 11.0792 24.557 9.11362C24.3061 8.30068 24.1003 8.05056 23.6475 8.00831C23.3959 7.98487 23.2984 8.00693 23.1201 8.12768C22.8669 8.29918 22.756 8.50637 22.525 9.24068C21.7124 11.8231 19.4183 13.6001 16.6411 13.7983C13.1297 14.049 10.3672 12.2217 9.36941 8.98843C9.14179 8.25081 8.96216 8.04618 8.51366 8.01362C8.34879 8.00162 8.1576 8.01662 8.08885 8.04693ZM8.07066 16.9699C7.84997 17.0787 7.6201 17.3309 7.6201 17.4643C7.6201 17.6177 7.23116 18.7086 7.04241 19.0844C6.38179 20.4001 5.07166 21.6349 3.75485 22.1831C3.05272 22.4754 2.17816 22.6764 1.4346 22.7165C1.07254 22.736 0.685848 22.7794 0.575285 22.813C0.19391 22.9288 -0.07959 23.4345 0.0214101 23.8371C0.0434726 23.9249 0.157223 24.1009 0.27416 24.2281L0.486848 24.4594L1.28785 24.4499C4.00316 24.4175 6.59254 23.0094 8.07316 20.7599L8.45135 20.1854L8.66529 20.5412C9.22116 21.4654 10.1391 22.4334 11.0077 23.0113C12.6147 24.0806 14.3488 24.5513 16.3701 24.467C17.4295 24.4228 18.0299 24.3229 18.8828 24.0491C20.747 23.4506 22.2982 22.2279 23.314 20.5564L23.5392 20.1859L23.9313 20.7847C24.675 21.9207 25.7302 22.8613 26.989 23.5107C28.1281 24.0983 29.2709 24.4002 30.6001 24.4646C31.2749 24.4973 31.3565 24.4891 31.5425 24.3711C31.8548 24.1729 32.0073 23.8869 31.9742 23.5617C31.9199 23.0287 31.5399 22.7409 30.8902 22.7408C29.533 22.7404 28.0321 22.2415 26.9378 21.4269C25.7079 20.5113 24.8924 19.2897 24.4564 17.7094C24.2686 17.0287 23.772 16.7374 23.2177 16.9826C22.9134 17.1172 22.7659 17.3428 22.62 17.8969C22.5747 18.0688 22.4357 18.4485 22.3112 18.7407C21.5934 20.4237 20.1245 21.7825 18.3989 22.3597C17.4767 22.6682 16.7938 22.7603 15.7139 22.7219C14.2542 22.6699 13.1299 22.3276 12.061 21.6097C10.7618 20.7372 9.76341 19.3604 9.36798 17.8958C9.20179 17.2803 9.12185 17.151 8.80916 16.9915C8.51272 16.8402 8.34373 16.8353 8.07066 16.9699Z" fill="#808080"/>
</svg>
