<svg width="32" height="32" viewBox="0 0 32 32" fill="none" xmlns="http://www.w3.org/2000/svg">
<path fill-rule="evenodd" clip-rule="evenodd" d="M28.6904 0.027155C27.4776 0.161718 25.9303 0.983655 24.252 2.38491C23.8483 2.72197 22.9371 3.59141 22.2273 4.31703L20.9366 5.63634L13.3836 3.47959C9.00214 2.22853 5.72127 1.32234 5.57045 1.32166C5.42745 1.32097 5.2587 1.34891 5.19545 1.38372C5.1322 1.41847 4.42658 2.10422 3.62733 2.90759L2.17421 4.36822V4.71528C2.17421 5.29109 2.27996 5.39184 3.64489 6.11641C4.29696 6.46253 7.01014 7.89359 9.6742 9.29659C12.3383 10.6996 14.5421 11.8693 14.5715 11.8958C14.601 11.9225 13.2369 13.3403 11.5403 15.0467L8.45545 18.1492L5.83046 18.2429C3.32114 18.3325 3.19552 18.3427 2.97933 18.4743C2.85502 18.5501 2.14696 19.2334 1.40596 19.9928C0.270269 21.1565 0.051706 21.4103 0.014581 21.6082C-0.0401065 21.8997 0.063456 22.2638 0.251268 22.4401C0.329206 22.5132 1.81064 23.1639 3.54339 23.886C5.27614 24.6082 6.71508 25.2333 6.74096 25.2752C6.76689 25.3172 7.35664 26.7179 8.05152 28.388C8.74639 30.0582 9.36733 31.4987 9.43127 31.5893C9.59452 31.8206 9.9887 31.9664 10.3171 31.917C10.5591 31.8806 10.6964 31.7625 12.007 30.4635C12.7916 29.6859 13.4726 28.9757 13.5203 28.8854C13.5851 28.7627 13.6313 28.0617 13.7036 26.1042L13.8003 23.4871L16.9003 20.3933C18.6052 18.6918 20.0135 17.3277 20.0297 17.3621C20.046 17.3965 21.4984 20.1381 23.2573 23.4545C26.7598 30.0584 26.5808 29.7684 27.1553 29.7684C27.3066 29.7684 27.5063 29.7283 27.5992 29.6793C27.692 29.6303 28.3911 28.9624 29.1528 28.1949C30.7011 26.6349 30.7336 26.5848 30.581 25.9997C30.5343 25.8209 29.5521 22.371 28.3983 18.3333L26.3005 10.9919L28.2268 9.05203C30.2211 7.04372 30.5517 6.64316 31.1954 5.45584C32.1295 3.73284 32.2231 2.23716 31.4663 1.13116C30.8775 0.270718 29.9216 -0.109407 28.6904 0.027155ZM29.6064 2.00284C30.3714 2.39447 30.1331 3.61172 28.9367 5.42459C28.5956 5.94147 28.1767 6.40091 26.515 8.08084C25.4099 9.19803 24.4593 10.1817 24.4025 10.2667C24.3457 10.3516 24.299 10.5344 24.2986 10.6729C24.2983 10.8162 25.2183 14.1758 26.4351 18.4752L28.5723 26.0258L27.9826 26.6148L27.393 27.2038L24.268 21.2917C22.5492 18.04 21.094 15.298 21.0341 15.1984C20.8481 14.8885 20.5706 14.7581 20.1545 14.7848L19.791 14.8082L15.9448 18.6477C13.2674 21.3203 12.0641 22.5631 11.9851 22.7371C11.8878 22.9517 11.8619 23.2929 11.8022 25.1433C11.764 26.3293 11.7168 27.4794 11.6975 27.6992L11.6623 28.0987L11.095 28.6852C10.7829 29.0078 10.509 29.2499 10.4864 29.2232C10.4637 29.1965 9.98683 28.0777 9.42658 26.7371C8.12058 23.6119 8.20589 23.787 7.91883 23.6406C7.72402 23.5412 3.47333 21.7671 2.82533 21.5147L2.64296 21.4437L3.26533 20.8596C4.00314 20.1672 3.63646 20.2431 6.7367 20.1405C7.88827 20.1024 8.94295 20.0433 9.08045 20.009C9.29833 19.9548 9.83427 19.4435 13.2523 16.0289L17.1742 12.111L17.174 11.7678C17.1737 11.392 17.0336 11.0906 16.7866 10.9342C16.7076 10.8843 15.5601 10.2691 14.2367 9.56728C6.2552 5.33466 4.79921 4.55628 4.79921 4.52228C4.79921 4.50147 5.05108 4.23378 5.35896 3.92734L5.91871 3.37016L10.0621 4.54391C12.341 5.18953 15.6398 6.12466 17.393 6.62203C21.3548 7.74603 21.2147 7.71253 21.5173 7.60847C21.6953 7.54728 22.2271 7.05809 23.6365 5.65916C24.6713 4.63191 25.7385 3.62803 26.0081 3.42828C27.6588 2.20522 28.9797 1.68197 29.6064 2.00284Z" fill="#808080"/>
</svg>
