<svg width="32" height="32" viewBox="0 0 32 32" fill="none" xmlns="http://www.w3.org/2000/svg">
<path fill-rule="evenodd" clip-rule="evenodd" d="M19.9802 1.08988C18.6867 1.37051 17.6154 1.97676 16.5627 3.02376C15.3628 4.21726 14.4696 5.84126 13.9754 7.72769L13.9059 7.99332H12.4364C10.8501 7.99332 10.7205 8.01613 10.5137 8.33169C10.3859 8.52669 10.384 8.84394 10.5054 9.70844C10.6124 10.4711 10.7264 10.6934 11.068 10.8062C11.356 10.9012 11.664 10.8004 11.8837 10.5393C12.0334 10.3615 12.0462 10.3048 12.0244 9.91844L12.0004 9.49332H12.8399H13.6796L13.6412 10.0773C13.5977 10.7395 13.6566 11.0339 13.8732 11.2374C14.1922 11.5371 14.8035 11.4462 14.9961 11.0704C15.0446 10.9758 15.1039 10.5859 15.129 10.1964L15.1744 9.49332H21.1608C26.5621 9.49332 27.151 9.50301 27.1852 9.59219C27.2061 9.64657 27.2232 9.92869 27.2232 10.2192C27.2232 11.012 27.412 11.3469 27.8957 11.4118C28.2057 11.4533 28.4986 11.3088 28.6337 11.0476C28.7121 10.8959 28.7293 10.7064 28.7129 10.1735L28.6919 9.49319L29.5201 9.49325C30.2671 9.49332 30.3482 9.504 30.348 9.60269C30.3479 9.66288 30.0526 12.0042 29.6917 14.8057C29.3309 17.6072 29.0357 20.0183 29.0357 20.1636C29.0357 20.3089 29.331 22.6574 29.6919 25.3824C30.0528 28.1075 30.3481 30.3863 30.3481 30.4464C30.3482 30.5499 29.9804 30.5558 23.4982 30.5558H16.6482L16.4357 30.7683C16.2543 30.9497 16.2232 31.0238 16.2232 31.2746C16.2232 31.5253 16.2543 31.5994 16.4357 31.7808L16.6482 31.9933H24.0967H31.5453L31.7248 31.8138C31.8235 31.7151 31.9224 31.562 31.9446 31.4736C31.9669 31.3847 31.6554 28.8219 31.2479 25.7414L30.5108 20.17L31.2507 14.4063C31.9679 8.81907 31.9874 8.636 31.8871 8.42463C31.6919 8.01313 31.6018 7.99332 29.9266 7.99332H28.4306L28.3505 7.63394C28.3064 7.43632 28.1863 7.03551 28.0835 6.74332C27.0306 3.75094 24.8679 1.60157 22.3977 1.09257C21.8042 0.970319 20.538 0.968882 19.9802 1.08988ZM22.2053 2.59213C24.1527 3.02257 25.9158 4.88357 26.7208 7.35832C26.8252 7.67938 26.9107 7.95363 26.9107 7.96769C26.9107 7.98182 24.3372 7.99332 21.1919 7.99332C17.0667 7.99332 15.4732 7.97413 15.4732 7.92444C15.4732 7.77413 15.8624 6.70619 16.093 6.22357C16.9216 4.48982 18.2496 3.20644 19.735 2.70388C20.5219 2.43763 21.3392 2.40069 22.2053 2.59213ZM6.55899 10.3045C4.79493 10.767 3.24068 12.4173 2.59874 14.5095L2.45274 14.9852L1.43568 15.0049L0.418554 15.0246L0.230116 15.2053C0.126554 15.3046 0.0244287 15.4647 0.00330366 15.5609C-0.0178213 15.6573 0.193616 17.5094 0.473179 19.6769L0.981491 23.6178L0.471304 27.4647C0.190679 29.5806 -0.0206963 31.3843 0.00161616 31.4731C0.0238662 31.5617 0.122866 31.7151 0.221554 31.8138L0.401054 31.9933H7.63087H14.8607L15.0732 31.7808C15.2574 31.5966 15.2854 31.528 15.2835 31.2652C15.2823 31.0984 15.0615 29.3121 14.7928 27.2956L14.3042 23.6291L14.7941 19.8268C15.0634 17.7356 15.2843 15.9177 15.2848 15.7871C15.2859 15.5011 15.1477 15.2136 14.9569 15.1046C14.867 15.0532 14.4622 15.0134 13.8252 14.9933L12.8334 14.9621L12.6577 14.4225C11.9689 12.3077 10.4031 10.6893 8.64456 10.2746C8.09868 10.1459 7.10974 10.1601 6.55899 10.3045ZM8.47743 11.7804C9.61562 12.1143 10.6819 13.2581 11.1656 14.6638L11.2789 14.9933H7.65055H4.02212L4.06274 14.8214C4.14405 14.4776 4.61468 13.5768 4.93068 13.1603C5.44012 12.4887 6.11324 11.9921 6.81693 11.7686C7.17487 11.6549 8.07143 11.6613 8.47743 11.7804ZM2.22318 16.926C2.22318 17.3001 2.24505 17.3847 2.38462 17.5506C2.67137 17.8914 3.16143 17.9204 3.46705 17.6149C3.64524 17.4367 3.72118 17.1728 3.72249 16.7277L3.72318 16.4933H7.65387H11.5845L11.608 16.9581C11.6275 17.3442 11.657 17.4501 11.7821 17.5832C12.1003 17.922 12.6664 17.8987 12.9359 17.5358C13.0394 17.3966 13.0669 17.2683 13.0669 16.9265V16.4936L13.3979 16.4934L13.7289 16.4933L13.6933 16.6964C13.6738 16.8082 13.4641 18.4183 13.2274 20.2746L12.7969 23.6496L13.2514 27.0558C13.5014 28.9292 13.6941 30.4831 13.6796 30.5089C13.6652 30.5347 10.9409 30.5558 7.62574 30.5558C1.99899 30.5558 1.59818 30.5487 1.59818 30.4497C1.59818 30.3914 1.79849 28.8317 2.04324 26.9838L2.48837 23.6239L2.04324 20.1651C1.79849 18.2627 1.59818 16.6583 1.59818 16.5998C1.59818 16.5137 1.65799 16.4933 1.91068 16.4933H2.22318V16.926Z" fill="#808080"/>
</svg>
