<svg width="32" height="32" viewBox="0 0 32 32" fill="none" xmlns="http://www.w3.org/2000/svg">
<path fill-rule="evenodd" clip-rule="evenodd" d="M6.14275 0.109837C6.03325 0.169962 4.64538 1.24277 3.05862 2.49384C0.0685625 4.85127 0 4.91546 0 5.35877C0 5.45496 0.04925 5.62352 0.109375 5.7334C0.1795 5.8614 1.23975 6.73402 3.0625 8.16396C4.62656 9.3909 5.99063 10.4466 6.09375 10.5099C6.27125 10.6188 6.51769 10.625 10.7031 10.6252L15.125 10.6255V11.438V12.2505H10.2751C4.9025 12.2505 5.13694 12.2329 4.876 12.6551C4.75256 12.8548 4.75 12.9556 4.75025 17.5703C4.75044 22.1329 4.75431 22.288 4.8725 22.4818C5.12419 22.8946 4.86294 22.8755 10.2469 22.8755H15.125V27.0537V31.2319L15.2669 31.4443C15.6306 31.9888 16.3802 31.9944 16.7335 31.4555C16.8356 31.2997 16.845 30.9771 16.8611 27.0814L16.8784 22.8755H21.2871C24.4412 22.8755 25.7332 22.8554 25.8275 22.805C26.1674 22.623 31.7741 18.1515 31.8799 17.978C32.0309 17.7302 32.0329 17.3989 31.8847 17.1559C31.7932 17.0059 26.509 12.7857 25.8799 12.3603C25.7304 12.2592 25.3981 12.2513 21.2969 12.2509L16.875 12.2505V11.438V10.6255H21.8041C26.708 10.6255 26.734 10.6248 26.8991 10.495C27.2646 10.2074 27.25 10.4235 27.2498 5.30046C27.2496 0.80615 27.2443 0.585525 27.1321 0.401712C26.8689 -0.0299126 27.6769 0.000462399 16.4583 0.000462399C6.94106 0.000462399 6.33 0.00696239 6.14275 0.109837ZM25.5625 5.34421V8.93796H16.1966H6.83056L4.56581 7.14902C2.68781 5.66552 2.31538 5.34615 2.38494 5.27846C2.431 5.23352 3.43906 4.4214 4.625 3.47365L6.78125 1.75059L16.1719 1.75052L25.5625 1.75046V5.34421ZM27.4439 15.7598C28.6802 16.7274 29.6837 17.5415 29.674 17.5687C29.6581 17.6131 27.8682 19.0394 25.8553 20.6116L25.1168 21.1884L15.7928 21.1725L6.46875 21.1567L6.45262 17.5786L6.4365 14.0005H15.8163H25.1961L27.4439 15.7598Z" fill="#808080"/>
</svg>
