<svg width="32" height="32" viewBox="0 0 32 32" fill="none" xmlns="http://www.w3.org/2000/svg">
<path fill-rule="evenodd" clip-rule="evenodd" d="M4.44194 0.0950091C4.32406 0.157072 4.17575 0.278697 4.11237 0.365322C3.95094 0.585822 0 11.3528 0 11.5722C0 11.9276 0.18925 12.1781 0.79975 12.631C3.68856 14.7739 7.11488 16.0302 10.8088 16.3009C11.3052 16.3373 11.7192 16.3749 11.7288 16.3845C11.7384 16.3941 11.501 16.481 11.2013 16.5775C9.38781 17.1614 7.38731 18.202 5.85656 19.3576C5.25969 19.8082 5.0625 20.0746 5.0625 20.4304C5.0625 20.5259 8.15369 29.161 8.94425 31.274C9.1425 31.8039 9.567 32.0666 10.0526 31.96C10.1556 31.9374 10.5726 31.6792 10.9793 31.3863C13.0814 29.8723 15.3206 28.8819 17.7365 28.3976C18.593 28.2259 19.3671 28.14 20.875 28.0495C24.7371 27.8178 28.1528 26.6041 31.1506 24.3984C31.7704 23.9424 32 23.6494 32 23.3144C32 23.0468 28.0195 12.3056 27.8529 12.1238C27.6284 11.8786 27.3842 11.7848 27.0529 11.8166C26.8074 11.8402 26.6673 11.9094 26.2976 12.1899C26.048 12.3793 25.7657 12.584 25.6703 12.6449L25.4968 12.7555L25.5666 12.5754C25.948 11.5911 26.9375 8.77707 26.9375 8.67676C26.9375 8.25282 26.5386 7.85201 25.2984 7.02988C22.4434 5.13732 19.3863 4.13451 15.8438 3.92851C13.4407 3.78876 12.0763 3.5392 10.3794 2.92895C8.63038 2.30007 7.37587 1.61457 5.55506 0.292947C5.13081 -0.0149909 4.77212 -0.0787409 4.44194 0.0950091ZM7.02569 3.48038C8.87681 4.50945 11.1294 5.26663 13.2784 5.58213C13.6549 5.63738 14.6112 5.72395 15.4034 5.77451C17.5397 5.91076 18.5551 6.09526 20.2722 6.65913C21.0224 6.90545 21.6524 7.1692 22.4602 7.5752C23.8126 8.25488 24.9018 8.95551 24.8419 9.10713C24.8201 9.16251 24.4131 10.2766 23.9375 11.5828C23.4619 12.8891 23.0538 14.0059 23.0307 14.0647C22.9556 14.2551 21.0723 14.9253 19.8088 15.2111C19.0193 15.3897 17.976 15.5516 17.6145 15.5516C17.4708 15.5516 17.1506 15.4817 16.9031 15.3963C15.3079 14.8456 13.9002 14.614 11.0111 14.4266C8.78313 14.2821 6.73156 13.7567 4.75588 12.8248C3.994 12.4654 2.608 11.6586 2.26638 11.3755L2.064 11.2078L3.62544 6.95782C4.48425 4.62032 5.21444 2.6447 5.24819 2.56763C5.30863 2.42926 5.31637 2.43188 5.82662 2.76432C6.11106 2.94963 6.65063 3.27188 7.02569 3.48038ZM7.92131 7.3277C7.601 7.44295 7.49975 7.53751 7.36056 7.85151C7.22781 8.15101 7.2505 8.39613 7.43994 8.70782C7.87525 9.42426 9.02925 9.15101 9.10981 8.31238C9.1775 7.60801 8.56119 7.09738 7.92131 7.3277ZM12.8195 7.40038C10.6521 7.98326 9.96369 10.6294 11.5814 12.1594C13.2144 13.7038 15.8787 12.7918 16.262 10.5571C16.5947 8.61638 14.7132 6.89107 12.8195 7.40038ZM13.9908 9.34776C14.4208 9.66888 14.5443 10.16 14.2994 10.5763C13.8318 11.3717 12.6601 11.1045 12.5799 10.1842C12.5463 9.79807 12.7106 9.50576 13.0691 9.31401C13.3872 9.14376 13.7345 9.15645 13.9908 9.34776ZM18.3438 11.2304C18.0119 11.4353 17.9157 11.593 17.8889 11.9758C17.8681 12.273 17.8886 12.3694 18.0113 12.5516C18.3917 13.116 19.1707 13.1192 19.5456 12.5579C19.7281 12.2849 19.7356 11.8499 19.5628 11.5666C19.3052 11.1441 18.7371 10.9874 18.3438 11.2304ZM28.3125 18.5544C29.1891 20.9271 29.9149 22.8934 29.9255 22.9241C29.9637 23.0342 28.5709 23.8879 27.4688 24.4299C25.1882 25.5514 23.3316 26.0176 20.4034 26.2039C18.2908 26.3383 17.1599 26.5279 15.5351 27.0204C13.8866 27.5201 12.0135 28.4031 10.671 29.3132C10.4187 29.4843 10.3019 29.5331 10.2812 29.4763C9.41669 27.1094 7.19206 20.9161 7.17712 20.8349C7.12769 20.5658 9.65475 19.1226 11.0938 18.5981C12.8902 17.9432 14.3785 17.6648 17.0312 17.4873C20.4338 17.2595 23.4454 16.3094 26.0312 14.6481C26.375 14.4272 26.6703 14.2451 26.6875 14.2434C26.7047 14.2417 27.4359 16.1816 28.3125 18.5544ZM23.375 19.101C22.7052 19.4669 22.7059 20.4178 23.3762 20.7546C23.8067 20.9709 24.2666 20.8401 24.5844 20.4112C24.7576 20.1774 24.7586 19.6766 24.5863 19.4458C24.2706 19.0229 23.7757 18.8821 23.375 19.101ZM17.8561 19.1201C17.1157 19.2943 16.2981 19.9501 15.9806 20.6243C15.1748 22.3358 16.2144 24.3163 18.081 24.6256C18.6421 24.7186 19.2091 24.6217 19.7932 24.333C21.1482 23.6633 21.7028 21.9291 21.0015 20.5546C20.8183 20.1954 20.2412 19.6006 19.8909 19.41C19.3019 19.0894 18.4825 18.9726 17.8561 19.1201ZM18.9137 21.028C19.6064 21.3568 19.5927 22.3443 18.8907 22.6841C18.0894 23.072 17.2502 22.1678 17.7006 21.4018C17.9549 20.9694 18.4612 20.8134 18.9137 21.028ZM12.7812 22.9564C12.1611 23.2757 12.1499 24.2717 12.7629 24.5899C13.0259 24.7264 13.4116 24.7264 13.6746 24.5899C13.9618 24.4408 14.1245 24.148 14.1248 23.7799C14.1252 23.2481 13.8173 22.9186 13.2856 22.8818C13.0834 22.8678 12.9009 22.8948 12.7812 22.9564Z" fill="#808080"/>
</svg>
