<svg width="12" height="12" viewBox="0 0 12 12" fill="none" xmlns="http://www.w3.org/2000/svg">
<path fill-rule="evenodd" clip-rule="evenodd" d="M8.23176 1.18686C7.66069 1.12499 6.94089 1.125 6.02262 1.125H5.97738C5.05911 1.125 4.33931 1.12499 3.76824 1.18686C3.18547 1.25 2.71328 1.38116 2.31012 1.67408C2.06605 1.85141 1.85141 2.06605 1.67408 2.31012C1.38116 2.71328 1.25 3.18547 1.18686 3.76824C1.12499 4.33931 1.125 5.05911 1.125 5.97738V6.02262C1.125 6.94089 1.12499 7.66069 1.18686 8.23176C1.25 8.81453 1.38116 9.28672 1.67408 9.68988C1.8514 9.93395 2.06604 10.1486 2.31012 10.3259C2.71328 10.6188 3.18547 10.75 3.76824 10.8131C4.3393 10.875 5.05908 10.875 5.97733 10.875H6.02264C6.94088 10.875 7.6607 10.875 8.23176 10.8131C8.81453 10.75 9.28672 10.6188 9.68988 10.3259C9.93395 10.1486 10.1486 9.93395 10.3259 9.68988C10.6188 9.28672 10.75 8.81453 10.8131 8.23176C10.875 7.6607 10.875 6.94092 10.875 6.02267V5.97736C10.875 5.05912 10.875 4.3393 10.8131 3.76824C10.75 3.18547 10.6188 2.71328 10.3259 2.31012C10.1486 2.06604 9.93395 1.8514 9.68988 1.67408C9.28672 1.38116 8.81453 1.25 8.23176 1.18686ZM2.75096 2.28084C3.00496 2.0963 3.33007 1.98873 3.84902 1.9325C4.375 1.87551 5.05421 1.875 6 1.875C6.94579 1.875 7.625 1.87551 8.15098 1.9325C8.66993 1.98873 8.99504 2.0963 9.24904 2.28084C9.42945 2.41191 9.58809 2.57056 9.71916 2.75096C9.9037 3.00496 10.0113 3.33007 10.0675 3.84902C10.1245 4.375 10.125 5.05421 10.125 6C10.125 6.94579 10.1245 7.625 10.0675 8.15098C10.0113 8.66993 9.9037 8.99504 9.71916 9.24904C9.58809 9.42945 9.42945 9.58809 9.24904 9.71916C8.99504 9.9037 8.66993 10.0113 8.15098 10.0675C7.625 10.1245 6.94579 10.125 6 10.125C5.05421 10.125 4.375 10.1245 3.84902 10.0675C3.33007 10.0113 3.00496 9.9037 2.75096 9.71916C2.57056 9.58809 2.41191 9.42945 2.28084 9.24904C2.0963 8.99504 1.98873 8.66993 1.9325 8.15098C1.87551 7.625 1.875 6.94579 1.875 6C1.875 5.05421 1.87551 4.375 1.9325 3.84902C1.98873 3.33007 2.0963 3.00496 2.28084 2.75096C2.41191 2.57056 2.57056 2.41191 2.75096 2.28084Z" fill="black"/>
<path d="M5.34119 6.53066V8.11562H4.59998V3.85H6.23181C6.70837 3.85 7.0863 3.97402 7.3656 4.22207C7.64685 4.47012 7.78748 4.79824 7.78748 5.20644C7.78748 5.62441 7.64978 5.94961 7.37439 6.18203C7.10095 6.41445 6.71716 6.53066 6.22302 6.53066H5.34119ZM5.34119 5.93594H6.23181C6.49548 5.93594 6.69666 5.87441 6.83533 5.75137C6.974 5.62637 7.04333 5.44668 7.04333 5.2123C7.04333 4.98183 6.97302 4.79824 6.8324 4.66152C6.69177 4.52285 6.49841 4.45156 6.25232 4.44765H5.34119V5.93594Z" fill="black"/>
</svg>
