<svg width="32" height="32" viewBox="0 0 32 32" fill="none" xmlns="http://www.w3.org/2000/svg">
<path fill-rule="evenodd" clip-rule="evenodd" d="M10.5996 0.0978428C9.99319 0.261155 9.51612 0.55328 8.98244 1.08809C8.56944 1.50197 8.4225 1.70478 8.18494 2.18916C7.73812 3.10016 7.625 3.60515 7.625 4.68916C7.625 5.77316 7.73812 6.27816 8.18494 7.18916C8.82319 8.49041 10.0984 9.37666 11.3324 9.37666C12.1771 9.37666 12.959 9.01516 13.6824 8.29022C14.0954 7.87634 14.2424 7.67353 14.4799 7.18916C14.9268 6.27816 15.0399 5.77316 15.0399 4.68916C15.0399 3.60515 14.9268 3.10016 14.4799 2.18916C14.2424 1.70478 14.0954 1.50197 13.6824 1.08809C12.757 0.160718 11.6666 -0.189532 10.5996 0.0978428ZM19.9746 0.0978428C19.3682 0.261155 18.8911 0.55328 18.3574 1.08809C17.9444 1.50197 17.7975 1.70478 17.5599 2.18916C17.1131 3.10016 17 3.60515 17 4.68916C17 5.77316 17.1131 6.27816 17.5599 7.18916C18.1982 8.49041 19.4734 9.37666 20.7074 9.37666C21.5521 9.37666 22.334 9.01516 23.0574 8.29022C23.4704 7.87634 23.6174 7.67353 23.8549 7.18916C24.3017 6.27816 24.4149 5.77316 24.4149 4.68916C24.4149 3.60515 24.3017 3.10016 23.8549 2.18916C23.6174 1.70478 23.4704 1.50197 23.0574 1.08809C22.132 0.160718 21.0416 -0.189532 19.9746 0.0978428ZM3.03713 7.66034C2.43069 7.82366 1.95362 8.11578 1.41994 8.65059C1.00694 9.06447 0.86 9.26728 0.622438 9.75166C0.175625 10.6627 0.0625 11.1677 0.0625 12.2517C0.0625 13.3357 0.175625 13.8407 0.622438 14.7517C0.86 15.236 1.00694 15.4388 1.41994 15.8527C2.87262 17.3084 4.66725 17.3084 6.11994 15.8527C6.53294 15.4388 6.67987 15.236 6.91744 14.7517C7.36425 13.8407 7.47738 13.3357 7.47738 12.2517C7.47738 11.1677 7.36425 10.6627 6.91744 9.75166C6.67987 9.26728 6.53294 9.06447 6.11994 8.65059C5.1945 7.72322 4.10406 7.37297 3.03713 7.66034ZM27.5371 7.66034C26.9307 7.82366 26.4536 8.11578 25.9199 8.65059C25.5069 9.06447 25.36 9.26728 25.1224 9.75166C24.6756 10.6627 24.5625 11.1677 24.5625 12.2517C24.5625 13.3357 24.6756 13.8407 25.1224 14.7517C25.36 15.236 25.5069 15.4388 25.9199 15.8527C27.3726 17.3084 29.1672 17.3084 30.6199 15.8527C31.0329 15.4388 31.1799 15.236 31.4174 14.7517C31.8642 13.8407 31.9774 13.3357 31.9774 12.2517C31.9774 11.1677 31.8642 10.6627 31.4174 9.75166C31.1799 9.26728 31.0329 9.06447 30.6199 8.65059C29.6945 7.72322 28.6041 7.37297 27.5371 7.66034ZM14.9887 13.2878C13.5594 13.4861 13.0248 13.6103 12.1827 13.9395C11.1524 14.3423 10.3437 14.8741 9.58969 15.6445C8.81925 16.4317 8.35013 17.2357 7.94975 18.455C7.52637 19.7443 7.40519 19.9106 6.17619 20.889C4.73625 22.0353 4.14275 22.8153 3.92644 23.8454C3.65075 25.1586 4.07 27.0332 4.96219 28.4766C5.40112 29.1867 6.49119 30.3065 7.17394 30.7488C9.18937 32.0542 11.6163 32.347 13.8324 31.5522C15.0296 31.1229 15.3272 31.0553 16.0199 31.0553C16.7127 31.0553 16.9983 31.1206 18.2074 31.5557C19.1165 31.8828 19.5759 31.9584 20.6762 31.9617C21.9958 31.9656 22.8625 31.7837 23.9284 31.2793C25.1036 30.7231 26.4048 29.5652 27.0777 28.4766C27.9699 27.0332 28.3891 25.1586 28.1134 23.8454C27.8971 22.8153 27.3036 22.0353 25.8637 20.889C24.6347 19.9106 24.5135 19.7443 24.0901 18.455C23.6897 17.2357 23.2206 16.4317 22.4502 15.6445C20.934 14.0953 18.9461 13.3358 16.2699 13.2833C15.6684 13.2715 15.0918 13.2735 14.9887 13.2878Z" fill="#808080"/>
</svg>
