<svg width="12" height="12" viewBox="0 0 12 12" fill="none" xmlns="http://www.w3.org/2000/svg">
<path d="M11.2152 3.28519C8.33491 0.404937 3.66509 0.404936 0.784835 3.28519L0.234835 3.83519C0.0883884 3.98164 0.0883883 4.21907 0.234835 4.36552C0.381281 4.51197 0.618718 4.51197 0.765165 4.36552L1.31517 3.81552C3.90253 1.22816 8.09747 1.22816 10.6848 3.81552L11.2348 4.36552C11.3813 4.51197 11.6187 4.51197 11.7652 4.36552C11.9116 4.21908 11.9116 3.98164 11.7652 3.83519L11.2152 3.28519Z" fill="black"/>
<path d="M9.41517 5.48519C7.52902 3.59905 4.47098 3.59905 2.58484 5.48519L2.23484 5.83519C2.08839 5.98164 2.08839 6.21908 2.23484 6.36552C2.38128 6.51197 2.61872 6.51197 2.76517 6.36552L3.11517 6.01552C4.70842 4.42227 7.29159 4.42227 8.88484 6.01552L9.23484 6.36552C9.38128 6.51197 9.61872 6.51197 9.76517 6.36552C9.91161 6.21908 9.91161 5.98164 9.76517 5.83519L9.41517 5.48519Z" fill="black"/>
<path d="M8.06517 7.63519C6.92461 6.49463 5.07539 6.49463 3.93483 7.63519L3.73484 7.83519C3.58839 7.98164 3.58839 8.21908 3.73483 8.36552C3.88128 8.51197 4.11872 8.51197 4.26516 8.36552L4.46517 8.16552C5.31283 7.31786 6.68717 7.31786 7.53484 8.16552L7.73483 8.36552C7.88128 8.51197 8.11872 8.51197 8.26517 8.36552C8.41161 8.21908 8.41161 7.98164 8.26517 7.83519L8.06517 7.63519Z" fill="black"/>
<path d="M6.5 10C6.5 10.2761 6.27614 10.5 6 10.5C5.72386 10.5 5.5 10.2761 5.5 10C5.5 9.72386 5.72386 9.5 6 9.5C6.27614 9.5 6.5 9.72386 6.5 10Z" fill="black"/>
</svg>
