<svg width="200" height="40" viewBox="0 0 200 40" fill="none" xmlns="http://www.w3.org/2000/svg">
<g clip-path="url(#clip0)">
<path d="M114.915 39.6958V37.025H112.346V39.6958H111.186V33.7593H112.346V36.3624H114.915V33.7593H116.075V39.6958H114.915ZM134.508 37.9784C134.386 38.357 134.21 38.6748 133.966 38.9452C133.729 39.2157 133.424 39.4185 133.064 39.5605C132.705 39.7025 132.292 39.7769 131.81 39.7769C131.322 39.7769 130.902 39.7025 130.549 39.5605C130.197 39.4185 129.912 39.2089 129.688 38.9385C129.464 38.668 129.302 38.3435 129.193 37.9716C129.085 37.593 129.037 37.1738 129.037 36.7072C129.037 36.2475 129.092 35.8283 129.2 35.4564C129.309 35.0845 129.478 34.7667 129.702 34.5098C129.925 34.2461 130.217 34.05 130.57 33.9081C130.922 33.7661 131.336 33.6985 131.817 33.6985C132.298 33.6985 132.719 33.7661 133.071 33.9081C133.431 34.05 133.722 34.2461 133.966 34.5098C134.203 34.7735 134.38 35.0845 134.502 35.4564C134.617 35.8283 134.678 36.2475 134.678 36.7072C134.692 37.1738 134.631 37.5997 134.508 37.9784ZM133.376 35.7336C133.315 35.4429 133.214 35.1995 133.078 35.0034C132.942 34.8006 132.773 34.6518 132.57 34.5436C132.359 34.4422 132.115 34.3881 131.831 34.3881C131.58 34.3881 131.349 34.4152 131.132 34.4692C130.915 34.5233 130.746 34.5977 130.624 34.6991C130.502 34.8006 130.407 35.0169 130.346 35.3482C130.285 35.6863 130.258 36.1393 130.258 36.7072C130.258 37.0656 130.285 37.3901 130.332 37.6741C130.386 37.9649 130.475 38.215 130.59 38.4246C130.712 38.6342 130.875 38.7965 131.071 38.9114C131.275 39.0264 131.519 39.0805 131.817 39.0805C132.122 39.0805 132.38 39.0534 132.576 38.9926C132.773 38.9385 132.942 38.8641 133.085 38.7695C133.153 38.7221 133.207 38.641 133.254 38.5125C133.302 38.3841 133.342 38.2285 133.376 38.0392C133.41 37.8499 133.431 37.6403 133.444 37.4172C133.458 37.1941 133.464 36.9507 133.464 36.7072C133.471 36.3489 133.437 36.0244 133.376 35.7336ZM148.8 35.7674C148.929 35.8418 149.071 35.9094 149.234 35.977C149.397 36.0379 149.559 36.1055 149.736 36.1799C149.905 36.2475 150.075 36.3286 150.237 36.4233C150.4 36.5179 150.542 36.6329 150.671 36.7613C150.8 36.8966 150.902 37.0588 150.976 37.2549C151.058 37.451 151.092 37.6809 151.092 37.9581C151.092 38.1745 151.037 38.3841 150.936 38.6072C150.834 38.8235 150.685 39.0196 150.488 39.1954C150.292 39.3712 150.061 39.5064 149.783 39.6214C149.505 39.7296 149.2 39.7836 148.861 39.7836C148.678 39.7836 148.508 39.7701 148.353 39.7498C148.197 39.7296 148.047 39.7025 147.912 39.6619C147.776 39.6281 147.641 39.5808 147.519 39.5267C147.397 39.4726 147.268 39.4185 147.146 39.3509L147.431 38.472C147.512 38.526 147.62 38.5869 147.756 38.6545C147.892 38.7154 148.041 38.7762 148.203 38.8371C148.366 38.8912 148.522 38.9385 148.685 38.9723C148.847 39.0061 148.997 39.0264 149.132 39.0264C149.281 39.0264 149.41 39.0196 149.505 38.9993C149.607 38.9791 149.688 38.952 149.77 38.9182C149.858 38.8844 149.925 38.7965 149.98 38.6613C150.034 38.526 150.054 38.3435 150.054 38.1271C150.054 37.9243 149.986 37.762 149.851 37.6403C149.715 37.5186 149.553 37.4172 149.349 37.3293C149.146 37.2414 148.929 37.1535 148.698 37.0656C148.461 36.9777 148.244 36.8628 148.047 36.7275C147.844 36.5855 147.675 36.4097 147.546 36.1934C147.41 35.977 147.342 35.6863 147.342 35.3279C147.342 35.1589 147.39 34.9763 147.478 34.787C147.566 34.5977 147.702 34.4219 147.871 34.2596C148.041 34.0974 148.258 33.9689 148.515 33.8607C148.773 33.7593 149.058 33.7052 149.383 33.7052C149.641 33.7052 149.892 33.7187 150.129 33.7458C150.373 33.7728 150.603 33.8066 150.827 33.8472L150.644 34.7262C150.542 34.6856 150.42 34.6518 150.292 34.618C150.163 34.5842 150.027 34.5571 149.885 34.5301C149.749 34.5031 149.614 34.4828 149.485 34.4692C149.356 34.4557 149.241 34.449 149.139 34.449C149.024 34.449 148.922 34.4557 148.827 34.4625C148.732 34.476 148.644 34.5031 148.57 34.5504C148.495 34.5909 148.441 34.6653 148.407 34.7735C148.373 34.8749 148.359 35.0034 148.359 35.1521C148.359 35.3009 148.4 35.4226 148.475 35.524C148.57 35.6052 148.671 35.693 148.8 35.7674ZM167.851 34.3475L166.156 34.3949V39.7025H164.99V34.3949L163.247 34.3678L163.308 33.7661H167.912L167.851 34.3475ZM181.62 34.3881V36.3219L183.586 36.3489L183.532 36.8966L181.62 36.9439V39.0669L183.939 39.1143L183.885 39.7025H180.468V33.7661H183.77L183.708 34.3678L181.62 34.3881ZM199.939 39.6958H196.678V33.7593H197.831V39.0805H200L199.939 39.6958Z" fill="white" fill-opacity="0.6"/>
<path d="M21.5322 29.4253V5.63217L12.2305 20.9736H10.9831L1.6339 5.72006V29.4253H0V-0.11496H3.48475L13.3898 15.9432L23.1661 -0.11496H26.3525V29.4253H21.5322ZM47.1458 29.8039C45.2068 29.8039 44.1288 28.9993 43.8305 27.3969C42.1966 28.9993 40.2983 29.8039 38.1017 29.8039C34.9559 29.8039 32.6305 27.9445 32.6305 24.7735C32.6305 20.6288 36.2915 18.1406 43.6542 17.2955V14.2934C43.6542 11.7579 42.3593 10.1961 39.8237 10.1961C37.7559 10.1961 35.8169 11.0007 34.0542 12.6031V10.8316C35.8169 9.43879 38.0136 8.76266 40.6847 8.76266C45.5932 8.76266 48.0475 10.9195 48.0475 15.2671V26.9303C48.0475 27.8161 48.4746 28.2826 49.2949 28.2826C49.8102 28.2826 50.3322 28.073 50.8881 27.6944V28.7086C49.8169 29.4253 48.5695 29.8039 47.1458 29.8039ZM43.661 18.4787C39.3153 18.9858 37.1593 20.8857 37.1593 24.1379C37.1593 26.1663 38.2373 27.8972 40.1695 27.8972C41.5051 27.8972 42.6644 27.309 43.661 26.1663V18.4787ZM57.4373 5.25353C56.0136 5.25353 54.8542 4.0703 54.8542 2.67747C54.8542 1.3252 56.061 0.182539 57.4373 0.182539C58.8542 0.182539 60.1085 1.3252 60.1085 2.67747C60.1085 4.1582 58.9424 5.25353 57.4373 5.25353ZM55.3288 9.22243H59.6339V29.1278C59.6339 32.2109 59.078 34.5774 58 36.3083C56.922 38.0392 54.8949 39.1819 52.0136 39.7769L51.3695 38.6342C54.6441 37.789 55.3288 35.6322 55.3288 31.7444V9.22243ZM84.2169 26.8492C82.2373 28.9182 79.478 29.9324 75.9051 29.9324C72.678 29.9324 69.9661 28.9587 67.8509 26.9709C65.7424 24.9831 64.6644 22.4476 64.6644 19.3644C64.6644 16.2813 65.7424 13.6984 67.8509 11.7174C70.0068 9.72953 72.7186 8.71533 75.9864 8.71533C79.261 8.71533 81.9322 9.68896 84.0407 11.67C86.1492 13.6579 87.1864 16.1934 87.1864 19.3644C87.1932 22.2853 86.2034 24.7735 84.2169 26.8492ZM80.6915 12.6031C79.5322 10.8722 77.9322 10.027 76 10.027C71.9932 10.027 69.4102 13.6646 69.4102 19.3644C69.4102 24.9425 71.9932 28.6207 76 28.6207C79.9186 28.6207 82.461 24.9425 82.461 19.3644C82.4542 16.5382 81.8508 14.2934 80.6915 12.6031ZM104.8 12.5625C103.892 11.8458 102.908 11.5078 101.742 11.5078C99.8509 11.5078 98.4678 12.2245 97.6542 13.6646C96.8339 15.1048 96.4068 16.8357 96.4068 18.9046V29.4253H92.061V9.22243H96.3254L96.3661 13.8675C96.8407 12.5152 97.6136 11.332 98.6508 10.3178C99.7288 9.30357 100.888 8.79647 102.224 8.79647C103.641 8.79647 104.766 9.1751 105.668 9.93913L104.8 12.5625ZM133.695 24.7735C131.153 27.6065 126.807 29.4185 121.464 29.4185H111.092V-0.11496H121.464C126.807 -0.11496 131.153 1.70384 133.695 4.53007C136.237 7.36307 137.573 10.8722 137.573 14.6315C137.566 18.3975 136.231 21.8999 133.695 24.7735ZM129.044 5.21296C127.017 2.67747 124.088 1.4131 120.217 1.4131H115.912V27.9107H120.217C124.095 27.9107 127.024 26.6464 129.044 24.1109C131.064 21.5348 132.054 18.3637 132.054 14.6044C132.054 10.8316 131.064 7.70113 129.044 5.21296ZM160.82 26.8492C158.841 28.9182 156.081 29.9324 152.508 29.9324C149.275 29.9324 146.563 28.9587 144.454 26.9709C142.346 24.9831 141.268 22.4476 141.268 19.3644C141.268 16.2813 142.346 13.6984 144.454 11.7174C146.61 9.72953 149.322 8.71533 152.59 8.71533C155.864 8.71533 158.529 9.68896 160.644 11.67C162.753 13.6579 163.79 16.1934 163.79 19.3644C163.79 22.2853 162.8 24.7735 160.82 26.8492ZM157.288 12.6031C156.129 10.8722 154.536 10.027 152.597 10.027C148.59 10.027 146.007 13.6646 146.007 19.3644C146.007 24.9425 148.59 28.6207 152.597 28.6207C156.515 28.6207 159.058 24.9425 159.058 19.3644C159.051 16.5382 158.447 14.2934 157.288 12.6031ZM195.607 29.4253V15.355C195.607 13.5362 195.349 12.3124 194.786 11.6768C194.142 10.9601 193.234 10.622 192.027 10.622C189.831 10.622 187.98 12.0149 186.475 14.8073V15.3144V29.4253H182.129V15.355C182.129 13.5362 181.824 12.3529 181.268 11.7241C180.664 11.0074 179.763 10.6694 178.508 10.6694C176.312 10.6694 174.461 12.0216 172.956 14.7667V29.432H168.651V9.22243H172.997V12.6437C174.759 10.027 177.044 8.71533 179.844 8.71533C183.417 8.71533 185.573 10.1555 186.217 12.9817C188.068 10.1487 190.434 8.71533 193.322 8.71533C197.756 8.71533 199.993 10.9128 199.993 15.3076V29.4185H195.607V29.4253Z" fill="white"/>
</g>
<defs>
<clipPath id="clip0">
<rect width="200" height="40" fill="white"/>
</clipPath>
</defs>
</svg>
